<svg xmlns="http://www.w3.org/2000/svg" width="20" height="20" viewBox="0 0 20 20">
  <g fill="none">
    <rect width="20" height="20" fill="#000" opacity="0"/>
    <path fill="#FFF" d="M16.1145708,5.73203991 L13.6539561,5.73203991 C13.8250379,5.47169659 13.9302355,5.14519759 13.9302355,4.75267064 C13.9302355,3.59257484 13.0121677,3 12.1859002,3 C11.2261078,3 10.5500679,3.49242316 9.99923352,4.10168462 C9.45673453,3.49242314 8.77235928,3 7.81255089,3 C6.98628342,3 6.05988023,3.59257484 6.05988023,4.75267066 C6.05988023,5.14519761 6.16603592,5.47169661 6.33837923,5.73203992 L3.87343712,5.73203991 C3.39112175,5.73203991 3,6.12343313 3,6.60594011 L3,8.79225548 C3,9.27437923 3.39104192,9.66615569 3.87343712,9.66615569 L3.8742515,9.66615569 L3.8742515,16.1147944 C3.8742515,16.5967425 4.28031936,16.988008 4.78058284,16.988008 L15.2074411,16.988008 C15.7069222,16.988008 16.1137725,16.597014 16.1137725,16.1147944 L16.1137725,9.66617166 L16.1145709,9.66617166 C16.5969022,9.66617166 16.988024,9.27476247 16.988024,8.79227145 L16.9880239,6.60594011 C16.9880239,6.12381636 16.596982,5.73203991 16.1145708,5.73203991 Z M12.2025868,3.85130537 C12.69501,3.85130537 13.0872655,4.20183631 13.0872655,4.75268661 C13.0872655,5.30353691 12.694994,5.65406784 12.2025868,5.65406784 C11.4848223,5.65406784 10.9840639,5.26179639 10.5584032,4.75268661 C10.9840639,4.24356088 11.4848223,3.85130537 12.2025868,3.85130537 Z M7.79586427,3.85130537 C8.51362873,3.85130537 9.01438722,4.24357683 9.44838323,4.75268661 C9.01438722,5.26179639 8.51362875,5.65406784 7.79586427,5.65406784 C7.30344111,5.65406784 6.91118563,5.30353691 6.91118563,4.75268661 C6.91118563,4.20183631 7.30344111,3.85130537 7.79586427,3.85130537 Z M9.99923353,5.40367264 C10.1029301,5.51837125 10.2110818,5.62861475 10.3247106,5.73203991 L9.67687027,5.73203991 C9.78994011,5.62861477 9.8971018,5.51837125 9.99923353,5.40367264 Z M4.78058283,16.1137725 C4.78083831,16.1137725 4.78088622,11.1807904 4.78088622,9.66617166 L15.2071377,9.66617166 L15.2071377,16.1148104 C15.2071377,16.1135329 4.78058283,16.1137725 4.78058283,16.1137725 Z M16.1137725,8.79192016 L15.6604551,8.79192016 L4.32756886,8.79192016 L3.90856686,8.79192016 C3.88873453,8.79192016 3.87718961,8.79192016 3.87426745,8.79192016 C3.87377244,8.79192016 3.87345308,8.79192016 3.87345308,8.79192016 C3.87425148,8.79192016 3.87426745,6.60594011 3.87426745,6.60594011 C3.87426745,6.60613172 16.1145868,6.60629141 16.1145868,6.60629141 C16.1137725,6.60629141 16.1137725,8.77714969 16.1137725,8.79192016 Z M13.6003034,10.5404231 C13.3588822,10.5404231 13.1631776,10.7361277 13.1631776,10.9775489 L13.1631776,14.8023952 C13.1631776,15.0438164 13.3588822,15.239521 13.6003034,15.239521 C13.8417245,15.239521 14.0374291,15.0438164 14.0374291,14.8023952 L14.0374291,10.9775489 C14.0374291,10.7361277 13.8417245,10.5404231 13.6003034,10.5404231 Z"/>
  </g>
</svg>
